<svg width="10" height="10" viewBox="0 0 10 10" fill="none" xmlns="http://www.w3.org/2000/svg">
<g id="Ellipse 2">
<mask id="path-1-inside-1_4_40" fill="white">
<path d="M10 5C10 7.76142 7.76142 10 5 10C2.23858 10 0 7.76142 0 5C0 2.23858 2.23858 0 5 0C7.76142 0 10 2.23858 10 5ZM2.9 5C2.9 6.1598 3.8402 7.1 5 7.1C6.1598 7.1 7.1 6.1598 7.1 5C7.1 3.8402 6.1598 2.9 5 2.9C3.8402 2.9 2.9 3.8402 2.9 5Z"/>
</mask>
<path d="M10 5C10 7.76142 7.76142 10 5 10C2.23858 10 0 7.76142 0 5C0 2.23858 2.23858 0 5 0C7.76142 0 10 2.23858 10 5ZM2.9 5C2.9 6.1598 3.8402 7.1 5 7.1C6.1598 7.1 7.1 6.1598 7.1 5C7.1 3.8402 6.1598 2.9 5 2.9C3.8402 2.9 2.9 3.8402 2.9 5Z" fill="#8CB150" stroke="black" stroke-width="0.4" mask="url(#path-1-inside-1_4_40)"/>
</g>
</svg>
